# Exported from Wings 3D 0.98.15a
mtllib paddle.mtl
o cylinder1
#112 vertices, 220 faces
v 1.00000 0.484000 0.00000e+0
v 0.923880 0.484000 0.382683
v 0.707107 0.484000 0.707107
v 0.382683 0.484000 0.923880
v 6.12323e-17 0.484000 1.00000
v -0.382683 0.484000 0.923880
v -0.707107 0.484000 0.707107
v -0.923880 0.484000 0.382683
v -1.00000 0.484000 1.22465e-16
v -0.923880 0.484000 -0.382683
v -0.707107 0.484000 -0.707107
v -0.382683 0.484000 -0.923880
v -1.83697e-16 0.484000 -1.00000
v 0.382683 0.484000 -0.923880
v 0.707107 0.484000 -0.707107
v 0.923880 0.484000 -0.382683
v 1.00000 0.00000e+0 0.00000e+0
v 0.923880 0.00000e+0 0.382683
v 0.707107 0.00000e+0 0.707107
v 0.382683 0.00000e+0 0.923880
v 6.12323e-17 0.00000e+0 1.00000
v -0.382683 0.00000e+0 0.923880
v -0.707107 0.00000e+0 0.707107
v -0.923880 0.00000e+0 0.382683
v -1.00000 0.00000e+0 1.22465e-16
v -0.923880 0.00000e+0 -0.382683
v -0.707107 0.00000e+0 -0.707107
v -0.382683 0.00000e+0 -0.923880
v -1.83697e-16 0.00000e+0 -1.00000
v 0.382683 0.00000e+0 -0.923880
v 0.707107 0.00000e+0 -0.707107
v 0.923880 0.00000e+0 -0.382683
v 0.744647 0.484000 0.308443
v 0.806000 0.484000 2.23905e-17
v 0.744647 0.484000 -0.308443
v 0.569928 0.484000 -0.569928
v 0.308443 0.484000 -0.744647
v -1.52910e-16 0.484000 -0.806000
v -0.308443 0.484000 -0.744647
v -0.569928 0.484000 -0.569928
v -0.744647 0.484000 -0.308443
v -0.806000 0.484000 1.00074e-16
v -0.744647 0.484000 0.308443
v -0.569928 0.484000 0.569928
v -0.308443 0.484000 0.744647
v 5.84335e-17 0.484000 0.806000
v 0.308443 0.484000 0.744647
v 0.569928 0.484000 0.569928
v 0.744647 0.420000 0.308443
v 0.806000 0.420000 2.23905e-17
v 0.744647 0.420000 -0.308443
v 0.569928 0.420000 -0.569928
v 0.308443 0.420000 -0.744647
v -1.52910e-16 0.420000 -0.806000
v -0.308443 0.420000 -0.744647
v -0.569928 0.420000 -0.569928
v -0.744647 0.420000 -0.308443
v -0.806000 0.420000 1.00074e-16
v -0.744647 0.420000 0.308443
v -0.569928 0.420000 0.569928
v -0.308443 0.420000 0.744647
v 5.84335e-17 0.420000 0.806000
v 0.308443 0.420000 0.744647
v 0.569928 0.420000 0.569928
v 0.288923 0.420000 0.119676
v 0.312728 0.420000 1.10683e-16
v 0.288923 0.420000 -0.119676
v 0.221132 0.420000 -0.221132
v 0.119676 0.420000 -0.288923
v -4.69591e-17 0.420000 -0.312728
v -0.119676 0.420000 -0.288923
v -0.221132 0.420000 -0.221132
v -0.288923 0.420000 -0.119676
v -0.312728 0.420000 2.95242e-18
v -0.288923 0.420000 0.119676
v -0.221132 0.420000 0.221132
v -0.119676 0.420000 0.288923
v -3.86882e-17 0.420000 0.312728
v 0.119676 0.420000 0.288923
v 0.221132 0.420000 0.221132
v 0.383112 0.770000 0.158690
v 0.414677 0.770000 1.40637e-16
v 0.383112 0.770000 -0.158690
v 0.293221 0.770000 -0.293221
v 0.158690 0.770000 -0.383112
v -4.58676e-17 0.770000 -0.414677
v -0.158690 0.770000 -0.383112
v -0.293221 0.770000 -0.293221
v -0.383112 0.770000 -0.158690
v -0.414677 0.770000 -2.21381e-18
v -0.383112 0.770000 0.158690
v -0.293221 0.770000 0.293221
v -0.158690 0.770000 0.383112
v -3.49005e-17 0.770000 0.414677
v 0.158690 0.770000 0.383112
v 0.293221 0.770000 0.293221
v 0.231400 1.08200 9.58488e-2
v 0.250465 1.08200 1.42435e-16
v 0.231400 1.08200 -9.58488e-2
v 0.177106 1.08200 -0.177106
v 9.58488e-2 1.08200 -0.231400
v -4.83126e-17 1.08200 -0.250465
v -9.58488e-2 1.08200 -0.231400
v -0.177106 1.08200 -0.177106
v -0.231400 1.08200 -9.58488e-2
v -0.250465 1.08200 5.61528e-17
v -0.231400 1.08200 9.58488e-2
v -0.177106 1.08200 0.177106
v -9.58488e-2 1.08200 0.231400
v -4.16884e-17 1.08200 0.250465
v 9.58488e-2 1.08200 0.231400
v 0.177106 1.08200 0.177106
vn 0.699461 0.713164 -4.63772e-2
vn 0.663966 0.713164 0.224825
vn 0.527387 0.713164 0.461800
vn 0.310519 0.713164 0.628470
vn 4.63772e-2 0.713164 0.699461
vn -0.224825 0.713164 0.663966
vn -0.461800 0.713164 0.527387
vn -0.628470 0.713164 0.310519
vn -0.699461 0.713164 4.63772e-2
vn -0.663966 0.713164 -0.224825
vn -0.527387 0.713164 -0.461800
vn -0.310519 0.713164 -0.628470
vn -4.63772e-2 0.713164 -0.699461
vn 0.224825 0.713164 -0.663966
vn 0.461800 0.713164 -0.527387
vn 0.628470 0.713164 -0.310519
vn -0.628470 0.713164 -0.310519
vn -0.699461 0.713164 -4.63772e-2
vn -0.663966 0.713164 0.224825
vn -0.527387 0.713164 0.461800
vn -0.310519 0.713164 0.628470
vn -4.63772e-2 0.713164 0.699461
vn 0.224825 0.713164 0.663966
vn 0.461800 0.713164 0.527387
vn 0.628470 0.713164 0.310519
vn 0.699461 0.713164 4.63772e-2
vn 0.663966 0.713164 -0.224825
vn 0.527387 0.713164 -0.461800
vn 0.310519 0.713164 -0.628470
vn 4.63772e-2 0.713164 -0.699461
vn -0.224825 0.713164 -0.663966
vn -0.461800 0.713164 -0.527387
vn -0.663966 0.713164 -0.224825
vn -0.699461 0.713164 4.63772e-2
vn -0.628470 0.713164 0.310519
vn -0.461800 0.713164 0.527387
vn -0.224825 0.713164 0.663966
vn 4.63772e-2 0.713164 0.699461
vn 0.310519 0.713164 0.628470
vn 0.527387 0.713164 0.461800
vn 0.663966 0.713164 0.224825
vn 0.699461 0.713164 -4.63772e-2
vn 0.628470 0.713164 -0.310519
vn 0.461800 0.713164 -0.527387
vn 0.224825 0.713164 -0.663966
vn -4.63772e-2 0.713164 -0.699461
vn -0.310519 0.713164 -0.628470
vn -0.527387 0.713164 -0.461800
vn 0.711241 0.608805 0.351415
vn 0.791582 0.608805 5.24851e-2
vn 0.751411 0.608805 -0.254435
vn 0.596845 0.608805 -0.522620
vn 0.351415 0.608805 -0.711241
vn 5.24851e-2 0.608805 -0.791582
vn -0.254435 0.608805 -0.751411
vn -0.522620 0.608805 -0.596845
vn -0.711241 0.608805 -0.351415
vn -0.791582 0.608805 -5.24851e-2
vn -0.751411 0.608805 0.254435
vn -0.596845 0.608805 0.522620
vn -0.351415 0.608805 0.711241
vn -5.24851e-2 0.608805 0.791582
vn 0.254435 0.608805 0.751411
vn 0.522620 0.608805 0.596845
vn 0.920158 0.100884 0.378327
vn 0.994895 0.100884 -2.60062e-3
vn 0.918168 0.100884 -0.383132
vn 0.701658 0.100884 -0.705336
vn 0.378327 0.100884 -0.920158
vn -2.60062e-3 0.100884 -0.994895
vn -0.383132 0.100884 -0.918168
vn -0.705336 0.100884 -0.701658
vn -0.920158 0.100884 -0.378327
vn -0.994895 0.100884 2.60062e-3
vn -0.918168 0.100884 0.383132
vn -0.701658 0.100884 0.705336
vn -0.378327 0.100884 0.920158
vn 2.60062e-3 0.100884 0.994895
vn 0.383132 0.100884 0.918168
vn 0.705336 0.100884 0.701658
vn 0.486584 0.857956 0.164762
vn 0.611787 0.789982 -4.05640e-2
vn 0.664139 0.671745 -0.328143
vn 0.338428 0.857956 -0.386493
vn 0.164762 0.857956 -0.486584
vn -3.39873e-2 0.857956 -0.512597
vn -0.227563 0.857956 -0.460571
vn -0.386493 0.857956 -0.338428
vn -0.486584 0.857956 -0.164762
vn -0.611787 0.789982 4.05640e-2
vn -0.664139 0.671745 0.328143
vn -0.338428 0.857956 0.386493
vn -0.164762 0.857956 0.486584
vn 3.39873e-2 0.857956 0.512597
vn 0.227563 0.857956 0.460571
vn 0.386493 0.857956 0.338428
vn 0.997809 0.00000e+0 6.61589e-2
vn 0.997809 0.00000e+0 6.61589e-2
vn 0.00000e+0 -1.00000 0.00000e+0
vn 0.00000e+0 -1.00000 0.00000e+0
vn 0.00000e+0 -1.00000 0.00000e+0
vn 0.997809 0.00000e+0 6.61589e-2
vn 0.00000e+0 -1.00000 0.00000e+0
vn 0.896538 0.00000e+0 0.442968
vn 0.896538 0.00000e+0 0.442968
vn 0.00000e+0 -1.00000 0.00000e+0
vn 0.896538 0.00000e+0 0.442968
vn 0.00000e+0 -1.00000 0.00000e+0
vn 0.658776 0.00000e+0 0.752339
vn 0.658776 0.00000e+0 0.752339
vn 0.658776 0.00000e+0 0.752339
vn 0.00000e+0 -1.00000 0.00000e+0
vn 0.320722 0.00000e+0 0.947173
vn 0.320722 0.00000e+0 0.947173
vn 0.00000e+0 -1.00000 0.00000e+0
vn 0.00000e+0 -1.00000 0.00000e+0
vn 0.320722 0.00000e+0 0.947173
vn -6.61589e-2 0.00000e+0 0.997809
vn -6.61589e-2 0.00000e+0 0.997809
vn 0.00000e+0 -1.00000 0.00000e+0
vn 0.00000e+0 -1.00000 0.00000e+0
vn 0.00000e+0 -1.00000 0.00000e+0
vn -6.61589e-2 0.00000e+0 0.997809
vn -0.442968 0.00000e+0 0.896538
vn -0.442968 0.00000e+0 0.896538
vn 0.00000e+0 -1.00000 0.00000e+0
vn 0.00000e+0 -1.00000 0.00000e+0
vn 0.00000e+0 -1.00000 0.00000e+0
vn -0.442968 0.00000e+0 0.896538
vn -0.752339 0.00000e+0 0.658776
vn -0.752339 0.00000e+0 0.658776
vn 0.00000e+0 -1.00000 0.00000e+0
vn 0.00000e+0 -1.00000 0.00000e+0
vn 0.00000e+0 -1.00000 0.00000e+0
vn -0.752339 0.00000e+0 0.658776
vn -0.947173 0.00000e+0 0.320722
vn -0.947173 0.00000e+0 0.320722
vn 0.00000e+0 -1.00000 0.00000e+0
vn 0.00000e+0 -1.00000 0.00000e+0
vn 0.00000e+0 -1.00000 0.00000e+0
vn -0.947173 0.00000e+0 0.320722
vn -0.997809 0.00000e+0 -6.61589e-2
vn -0.997809 0.00000e+0 -6.61589e-2
vn 0.00000e+0 -1.00000 0.00000e+0
vn 0.00000e+0 -1.00000 0.00000e+0
vn 0.00000e+0 -1.00000 0.00000e+0
vn -0.997809 0.00000e+0 -6.61589e-2
vn -0.896538 0.00000e+0 -0.442968
vn -0.896538 0.00000e+0 -0.442968
vn 0.00000e+0 -1.00000 0.00000e+0
vn 0.00000e+0 -1.00000 0.00000e+0
vn -0.896538 0.00000e+0 -0.442968
vn -0.658776 0.00000e+0 -0.752339
vn -0.658776 0.00000e+0 -0.752339
vn 0.00000e+0 -1.00000 0.00000e+0
vn -0.658776 0.00000e+0 -0.752339
vn -0.320722 0.00000e+0 -0.947173
vn -0.320722 0.00000e+0 -0.947173
vn 0.00000e+0 -1.00000 0.00000e+0
vn 0.00000e+0 -1.00000 0.00000e+0
vn 0.00000e+0 -1.00000 0.00000e+0
vn -0.320722 0.00000e+0 -0.947173
vn 6.61589e-2 0.00000e+0 -0.997809
vn 6.61589e-2 0.00000e+0 -0.997809
vn 0.00000e+0 -1.00000 0.00000e+0
vn 0.00000e+0 -1.00000 0.00000e+0
vn 0.00000e+0 -1.00000 0.00000e+0
vn 6.61589e-2 0.00000e+0 -0.997809
vn 0.442968 0.00000e+0 -0.896538
vn 0.442968 0.00000e+0 -0.896538
vn 0.00000e+0 -1.00000 0.00000e+0
vn 0.00000e+0 -1.00000 0.00000e+0
vn 0.00000e+0 -1.00000 0.00000e+0
vn 0.442968 0.00000e+0 -0.896538
vn 0.752339 0.00000e+0 -0.658776
vn 0.752339 0.00000e+0 -0.658776
vn 0.00000e+0 -1.00000 0.00000e+0
vn 0.00000e+0 -1.00000 0.00000e+0
vn 0.00000e+0 -1.00000 0.00000e+0
vn 0.752339 0.00000e+0 -0.658776
vn 0.947173 0.00000e+0 -0.320722
vn 0.947173 0.00000e+0 -0.320722
vn 0.00000e+0 -1.00000 0.00000e+0
vn 0.00000e+0 -1.00000 0.00000e+0
vn 0.00000e+0 -1.00000 0.00000e+0
vn 0.947173 0.00000e+0 -0.320722
g cylinder1_default
usemtl default
f 1//1 32//186 16//16
f 1//1 33//17 2//2
f 2//2 17//102 1//1
f 2//2 48//32 3//3
f 3//3 18//107 2//2
f 3//3 47//31 4//4
f 4//4 19//111 3//3
f 4//4 46//30 5//5
f 5//5 20//117 4//4
f 5//5 45//29 6//6
f 6//6 21//123 5//5
f 6//6 44//28 7//7
f 7//7 22//129 6//6
f 7//7 43//27 8//8
f 8//8 23//135 7//7
f 8//8 42//26 9//9
f 9//9 24//141 8//8
f 9//9 41//25 10//10
f 10//10 25//147 9//9
f 10//10 40//24 11//11
f 11//11 26//152 10//10
f 11//11 39//23 12//12
f 12//12 27//156 11//11
f 12//12 38//22 13//13
f 13//13 28//162 12//12
f 13//13 37//21 14//14
f 14//14 29//168 13//13
f 14//14 36//20 15//15
f 15//15 30//174 14//14
f 15//15 35//19 16//16
f 16//16 31//180 15//15
f 16//16 34//18 1//1
f 17//101 21//122 32//184
f 17//97 32//181 1//1
f 18//105 17//98 2//2
f 18//106 20//115 17//99
f 19//110 18//104 3//3
f 19//108 20//112 18//103
f 20//114 19//109 4//4
f 21//121 17//100 20//116
f 21//119 20//113 5//5
f 22//125 21//118 6//6
f 22//126 32//183 21//120
f 23//131 22//124 7//7
f 23//134 31//178 22//127
f 24//137 23//130 8//8
f 24//140 30//173 23//133
f 25//143 24//136 9//9
f 25//146 29//167 24//139
f 26//149 25//142 10//10
f 26//151 28//161 25//145
f 27//154 26//148 11//11
f 27//155 28//160 26//150
f 28//158 27//153 12//12
f 29//165 25//144 28//159
f 29//164 28//157 13//13
f 30//171 24//138 29//166
f 30//170 29//163 14//14
f 31//177 23//132 30//172
f 31//176 30//169 15//15
f 32//185 22//128 31//179
f 32//182 31//175 16//16
f 33//17 1//1 34//18
f 33//17 48//32 2//2
f 33//17 64//48 48//32
f 34//18 16//16 35//19
f 34//18 49//33 33//17
f 35//19 15//15 36//20
f 35//19 50//34 34//18
f 36//20 14//14 37//21
f 36//20 51//35 35//19
f 37//21 13//13 38//22
f 37//21 52//36 36//20
f 38//22 12//12 39//23
f 38//22 53//37 37//21
f 39//23 11//11 40//24
f 39//23 54//38 38//22
f 40//24 10//10 41//25
f 40//24 55//39 39//23
f 41//25 9//9 42//26
f 41//25 56//40 40//24
f 42//26 8//8 43//27
f 42//26 57//41 41//25
f 43//27 7//7 44//28
f 43//27 58//42 42//26
f 44//28 6//6 45//29
f 44//28 59//43 43//27
f 45//29 5//5 46//30
f 45//29 60//44 44//28
f 46//30 4//4 47//31
f 46//30 61//45 45//29
f 47//31 3//3 48//32
f 47//31 62//46 46//30
f 48//32 63//47 47//31
f 49//33 34//18 50//34
f 49//33 64//48 33//17
f 49//33 80//64 64//48
f 50//34 35//19 51//35
f 50//34 65//49 49//33
f 51//35 36//20 52//36
f 51//35 66//50 50//34
f 52//36 37//21 53//37
f 52//36 67//51 51//35
f 53//37 38//22 54//38
f 53//37 68//52 52//36
f 54//38 39//23 55//39
f 54//38 69//53 53//37
f 55//39 40//24 56//40
f 55//39 70//54 54//38
f 56//40 41//25 57//41
f 56//40 71//55 55//39
f 57//41 42//26 58//42
f 57//41 72//56 56//40
f 58//42 43//27 59//43
f 58//42 73//57 57//41
f 59//43 44//28 60//44
f 59//43 74//58 58//42
f 60//44 45//29 61//45
f 60//44 75//59 59//43
f 61//45 46//30 62//46
f 61//45 76//60 60//44
f 62//46 47//31 63//47
f 62//46 77//61 61//45
f 63//47 48//32 64//48
f 63//47 78//62 62//46
f 64//48 79//63 63//47
f 65//49 50//34 66//50
f 65//49 80//64 49//33
f 65//49 96//80 80//64
f 66//50 51//35 67//51
f 66//50 81//65 65//49
f 67//51 52//36 68//52
f 67//51 82//66 66//50
f 68//52 53//37 69//53
f 68//52 83//67 67//51
f 69//53 54//38 70//54
f 69//53 84//68 68//52
f 70//54 55//39 71//55
f 70//54 85//69 69//53
f 71//55 56//40 72//56
f 71//55 86//70 70//54
f 72//56 57//41 73//57
f 72//56 87//71 71//55
f 73//57 58//42 74//58
f 73//57 88//72 72//56
f 74//58 59//43 75//59
f 74//58 89//73 73//57
f 75//59 60//44 76//60
f 75//59 90//74 74//58
f 76//60 61//45 77//61
f 76//60 91//75 75//59
f 77//61 62//46 78//62
f 77//61 92//76 76//60
f 78//62 63//47 79//63
f 78//62 93//77 77//61
f 79//63 64//48 80//64
f 79//63 94//78 78//62
f 80//64 95//79 79//63
f 81//65 66//50 82//66
f 81//65 96//80 65//49
f 81//65 112//96 96//80
f 82//66 67//51 83//67
f 82//66 97//81 81//65
f 83//67 68//52 84//68
f 83//67 98//82 82//66
f 84//68 69//53 85//69
f 84//68 99//83 83//67
f 85//69 70//54 86//70
f 85//69 100//84 84//68
f 86//70 71//55 87//71
f 86//70 101//85 85//69
f 87//71 72//56 88//72
f 87//71 102//86 86//70
f 88//72 73//57 89//73
f 88//72 103//87 87//71
f 89//73 74//58 90//74
f 89//73 104//88 88//72
f 90//74 75//59 91//75
f 90//74 105//89 89//73
f 91//75 76//60 92//76
f 91//75 106//90 90//74
f 92//76 77//61 93//77
f 92//76 107//91 91//75
f 93//77 78//62 94//78
f 93//77 108//92 92//76
f 94//78 79//63 95//79
f 94//78 109//93 93//77
f 95//79 80//64 96//80
f 95//79 110//94 94//78
f 96//80 111//95 95//79
f 97//81 82//66 98//82
f 97//81 101//85 112//96
f 97//81 112//96 81//65
f 98//82 83//67 99//83
f 98//82 100//84 97//81
f 99//83 84//68 100//84
f 99//83 100//84 98//82
f 100//84 85//69 101//85
f 101//85 86//70 102//86
f 101//85 97//81 100//84
f 102//86 87//71 103//87
f 102//86 112//96 101//85
f 103//87 88//72 104//88
f 103//87 111//95 102//86
f 104//88 89//73 105//89
f 104//88 110//94 103//87
f 105//89 90//74 106//90
f 105//89 109//93 104//88
f 106//90 91//75 107//91
f 106//90 108//92 105//89
f 107//91 92//76 108//92
f 107//91 108//92 106//90
f 108//92 93//77 109//93
f 109//93 94//78 110//94
f 109//93 105//89 108//92
f 110//94 95//79 111//95
f 110//94 104//88 109//93
f 111//95 96//80 112//96
f 111//95 103//87 110//94
f 112//96 102//86 111//95
