# Blender v2.62 (sub 0) OBJ File: 'AirHockeyBoardTest.blend'
# www.blender.org
mtllib Board.mtl
o Board
v -2.999992 0.000000 6.000001
v -3.000007 0.000000 -6.000000
v -1.000007 0.000000 -6.006734
v -1.000007 0.000000 -6.206734
v -0.999992 0.000000 6.197928
v -0.999992 0.000000 5.997929
v 3.000000 0.000000 -6.000000
v 2.999999 0.000000 6.000000
v 1.000000 0.000000 6.006732
v 0.999999 0.000000 6.206732
v 1.000000 0.000000 -6.197930
v 1.000000 0.000000 -5.997931
vt 0.999440 0.166482
vt 0.999267 0.332962
vt 0.000000 0.332962
vt 0.000560 0.166481
vt 0.000000 0.000000
vt 0.999267 0.000002
vt 1.000000 0.166481
vt 0.000733 0.166481
vt 0.000000 0.499442
vt 0.000172 0.332962
vt 0.999440 0.332962
vt 0.998879 0.499442
vt 0.333841 0.521245
vt 0.167361 0.521244
vt 0.168135 0.499442
vt 0.334616 0.499443
vt 0.166586 0.521258
vt 0.000000 0.521258
vt 0.000775 0.499442
vt 0.167361 0.499442
vn 0.000000 1.000000 -0.000000
usemtl _Board.001
s off
f 1/1/1 6/2/1 3/3/1
f 1/1/1 3/3/1 2/4/1
f 3/5/1 6/6/1 9/7/1
f 3/5/1 9/7/1 12/8/1
f 7/9/1 12/10/1 9/11/1
f 7/9/1 9/11/1 8/12/1
f 5/13/1 10/14/1 9/15/1
f 5/13/1 9/15/1 6/16/1
f 3/17/1 12/18/1 11/19/1
f 3/17/1 11/19/1 4/20/1
